<svg xmlns="http://www.w3.org/2000/svg" viewBox="0 0 512 512" width="512" height="512">
  <defs>
    <linearGradient id="icon-grad" x1="0%" y1="0%" x2="100%" y2="100%">
      <stop offset="0%" stop-color="#6a00ff" />
      <stop offset="100%" stop-color="#2f0075" />
    </linearGradient>
  </defs>
  <rect width="512" height="512" rx="140" fill="url(#icon-grad)" />
  <path d="M 437.7,103.0 L 436.6,112.4 L 431.4,120.7 L 327.7,245.6 L 271.2,322.6 L 272.2,325.7 L 276.4,325.7 L 318.3,313.2 L 379.0,300.7 L 419.9,295.5 L 424.0,297.6 L 404.2,300.7 L 336.1,319.5 L 257.6,348.6 L 197.9,376.7 L 165.4,396.5 L 136.1,417.3 L 130.9,419.4 L 121.5,418.3 L 82.7,406.9 L 79.6,404.8 L 76.4,398.6 L 79.6,383.0 L 85.9,368.4 L 108.9,324.7 L 131.9,287.2 L 152.9,256.0 L 198.9,193.6 L 224.1,162.3 L 242.9,142.6 L 250.2,138.4 L 258.6,138.4 L 265.9,143.6 L 268.0,149.9 L 264.9,168.6 L 245.0,223.7 L 247.1,225.8 L 303.6,180.0 L 363.3,128.0 L 395.8,103.0 L 415.7,92.6 L 428.2,92.6 L 432.4,94.7 L 437.7,102.0 Z M 242.9,263.3 L 219.9,283.1 L 210.5,283.1 L 205.2,278.9 L 205.2,265.4 L 222.0,215.4 L 220.9,212.3 L 188.5,248.7 L 144.5,308.0 L 122.5,342.4 L 100.5,384.0 L 101.6,388.2 L 118.3,384.0 L 193.7,352.8 L 238.7,337.2 L 242.9,333.0 L 242.9,330.9 L 261.8,301.8 L 341.3,185.2 L 340.3,183.2 L 338.2,184.2 L 301.5,211.3 L 242.9,262.2 Z" fill="#ffffff" fill-rule="evenodd" />
</svg>